<?xml version="1.0" encoding="UTF-8" standalone="no"?>
<svg width="298.097mm" height="290.689mm"
 viewBox="0 0 845 824"
 xmlns="http://www.w3.org/2000/svg" xmlns:xlink="http://www.w3.org/1999/xlink"  version="1.2" baseProfile="tiny">
<title>Qt SVG Document</title>
<desc>Generated with Qt</desc>
<defs>
</defs>
<g fill="none" stroke="black" stroke-width="1" fill-rule="evenodd" stroke-linecap="square" stroke-linejoin="bevel" >

<g fill="#ffffff" fill-opacity="1" stroke="none" transform="matrix(1,0,0,1,0,0)"
font-family=".AppleSystemUIFont" font-size="13" font-weight="400" font-style="normal" 
>
<rect x="0" y="0" width="845" height="824"/>
</g>

<g fill="none" stroke="#000000" stroke-opacity="1" stroke-width="1" stroke-linecap="square" stroke-linejoin="bevel" transform="matrix(1,0,0,1,0,0)"
font-family=".AppleSystemUIFont" font-size="13" font-weight="400" font-style="normal" 
>
</g>

<g fill="none" stroke="#000000" stroke-opacity="1" stroke-width="1" stroke-linecap="square" stroke-linejoin="bevel" transform="matrix(1,0,0,1,0,0)"
font-family=".AppleSystemUIFont" font-size="13" font-weight="400" font-style="normal" 
>
</g>

<g fill="none" stroke="#000000" stroke-opacity="1" stroke-width="1" stroke-linecap="square" stroke-linejoin="bevel" transform="matrix(1,0,0,1,0,0)"
font-family=".AppleSystemUIFont" font-size="13" font-weight="400" font-style="normal" 
>
</g>

<g fill="none" stroke="#000000" stroke-opacity="1" stroke-width="1" stroke-linecap="square" stroke-linejoin="bevel" transform="matrix(3.77525,0,0,3.77525,-43,83)"
font-family=".AppleSystemUIFont" font-size="13" font-weight="400" font-style="normal" 
>
</g>

<g fill="none" stroke="#000000" stroke-opacity="0.705882" stroke-width="1.5" stroke-linecap="round" stroke-linejoin="bevel" transform="matrix(3.77525,0,0,3.77525,-43,83)"
font-family=".AppleSystemUIFont" font-size="13" font-weight="400" font-style="normal" 
>
<path vector-effect="none" fill-rule="evenodd" d="M107.683,148.999 C104.996,148.992 104.992,148.888 102.328,148.531 "/>
</g>

<g fill="none" stroke="#000000" stroke-opacity="1" stroke-width="1" stroke-linecap="square" stroke-linejoin="bevel" transform="matrix(3.77525,0,0,3.77525,-43,83)"
font-family=".AppleSystemUIFont" font-size="13" font-weight="400" font-style="normal" 
>
</g>

<g fill="none" stroke="#000000" stroke-opacity="1" stroke-width="1" stroke-linecap="square" stroke-linejoin="bevel" transform="matrix(3.77525,0,0,3.77525,-43,83)"
font-family=".AppleSystemUIFont" font-size="13" font-weight="400" font-style="normal" 
>
</g>

<g fill="none" stroke="#000000" stroke-opacity="0.705882" stroke-width="1.5" stroke-linecap="round" stroke-linejoin="bevel" transform="matrix(3.77525,0,0,3.77525,-43,83)"
font-family=".AppleSystemUIFont" font-size="13" font-weight="400" font-style="normal" 
>
<path vector-effect="none" fill-rule="evenodd" d="M118.526,148.628 C115.847,148.892 115.848,149.019 113.156,149.013 "/>
</g>

<g fill="none" stroke="#000000" stroke-opacity="1" stroke-width="1" stroke-linecap="square" stroke-linejoin="bevel" transform="matrix(3.77525,0,0,3.77525,-43,83)"
font-family=".AppleSystemUIFont" font-size="13" font-weight="400" font-style="normal" 
>
</g>

<g fill="none" stroke="#000000" stroke-opacity="1" stroke-width="1" stroke-linecap="square" stroke-linejoin="bevel" transform="matrix(3.77525,0,0,3.77525,-43,83)"
font-family=".AppleSystemUIFont" font-size="13" font-weight="400" font-style="normal" 
>
</g>

<g fill="#cb62a1" fill-opacity="1" stroke="none" transform="matrix(3.77525,0,0,3.77525,-43,83)"
font-family=".AppleSystemUIFont" font-size="13" font-weight="400" font-style="normal" 
>
<path vector-effect="none" fill-rule="nonzero" d="M101.996,151.009 L81.7509,148.294 C81.6037,148.275 81.4616,148.243 81.3252,148.2 L81.3258,148.199 L62.0918,142.086 C61.9076,142.028 61.7337,141.949 61.5717,141.853 L61.572,141.852 L44.4137,131.656 C44.2051,131.532 44.0164,131.379 43.853,131.202 L43.853,131.202 L30.5543,116.78 C30.356,116.565 30.1948,116.315 30.0814,116.041 L30.0817,116.04 L22.6895,98.1509 C22.5672,97.8571 22.5,97.5345 22.5,97.1961 C22.5,97.1911 22.5,97.1861 22.5,97.1811 L22.5,97.1811 L22.6155,77.9219 C22.6176,77.5796 22.6883,77.2538 22.8145,76.9577 L22.815,76.9582 L30.3882,59.157 C30.5022,58.8879 30.6621,58.6438 30.8578,58.4334 L30.8578,58.4334 L44.1863,44.0987 C44.3438,43.9294 44.5244,43.782 44.7231,43.6616 L44.7235,43.6618 L61.7278,33.3788 C61.8792,33.2866 62.0415,33.2104 62.2115,33.1522 L62.2126,33.1525 L81.2904,26.6293 C81.419,26.5846 81.5529,26.5507 81.6898,26.5282 L81.691,26.5284 L101.804,23.1991 C101.91,23.1812 102.02,23.1704 102.131,23.1668 L102.131,23.1668 L122.627,22.5013 C122.654,22.5004 122.681,22.5 122.708,22.5 C124.089,22.5 125.208,23.6193 125.208,25 C125.208,26.3807 124.089,27.5 122.708,27.5 C121.328,27.5 120.208,26.3807 120.208,25 C120.208,23.742 121.138,22.701 122.346,22.526 L122.908,22.508 L143.345,24.1456 C143.438,24.1528 143.528,24.1651 143.616,24.1818 L143.616,24.1822 L163.616,28.0111 C163.721,28.0307 163.824,28.0571 163.922,28.0894 L163.922,28.0899 L183.022,34.3252 C183.161,34.37 183.294,34.4268 183.42,34.494 L183.42,34.4944 L200.827,43.75 C201.022,43.8535 201.202,43.9822 201.361,44.1317 L201.361,44.1317 L215.461,57.3203 C215.702,57.546 215.898,57.8189 216.035,58.1239 L216.035,58.1247 L223.797,75.4657 C223.937,75.7772 224.015,76.1231 224.015,76.4871 C224.015,76.5517 224.013,76.6157 224.008,76.6784 L224.008,76.6783 L222.56,95.5649 C222.531,95.9486 222.415,96.3074 222.233,96.6226 L222.233,96.6223 L212.656,113.238 C212.524,113.467 212.356,113.673 212.161,113.848 L212.161,113.848 L197.589,126.953 C197.456,127.073 197.31,127.178 197.153,127.268 L197.153,127.267 L179.708,137.18 C179.592,137.246 179.469,137.304 179.343,137.351 L179.342,137.35 L160.157,144.463 C160.052,144.503 159.944,144.535 159.833,144.56 L159.831,144.559 L139.705,149.04 C139.608,149.062 139.508,149.078 139.407,149.088 L139.406,149.088 L118.771,151.116 L118.282,146.14 L138.917,144.112 L139.162,146.6 L138.618,144.16 L158.745,139.679 L159.288,142.119 L158.419,139.775 L177.604,132.662 L178.473,135.006 L177.238,132.833 L194.682,122.92 L195.918,125.094 L194.246,123.235 L208.818,110.13 L210.49,111.989 L208.324,110.741 L217.901,94.1253 L220.067,95.3738 L217.574,95.1827 L219.022,76.296 L221.515,76.4871 L219.233,77.5085 L211.471,60.1675 L213.753,59.1461 L212.045,60.9718 L197.946,47.7832 L199.653,45.9574 L198.48,48.1648 L181.072,38.9091 L182.246,36.7018 L181.47,39.0783 L162.37,32.843 L163.146,30.4665 L162.676,32.9219 L142.675,29.093 L143.146,26.6376 L142.946,29.1296 L122.509,27.492 L122.708,25 L122.789,27.4987 L102.293,28.1642 L102.212,25.6655 L102.62,28.132 L82.5076,31.4613 L82.0993,28.9948 L82.9081,31.3604 L63.8303,37.8836 L63.0214,35.5181 L64.3151,37.6573 L47.3108,47.9403 L46.0171,45.801 L47.848,47.5034 L34.5195,61.8381 L32.6887,60.1357 L34.9891,61.1144 L27.416,78.9156 L25.1155,77.9369 L27.6154,77.9519 L27.5,97.2111 L25,97.1961 L27.3105,96.2414 L34.7027,114.13 L32.3922,115.085 L34.2301,113.39 L47.5287,127.812 L45.6908,129.507 L46.968,127.358 L64.1262,137.554 L62.8491,139.703 L63.6064,137.321 L82.8404,143.434 L82.0831,145.817 L82.4153,143.339 L102.66,146.053 L101.996,151.009"/>
</g>

<g fill="none" stroke="#000000" stroke-opacity="1" stroke-width="1" stroke-linecap="square" stroke-linejoin="bevel" transform="matrix(3.77525,0,0,3.77525,-43,83)"
font-family=".AppleSystemUIFont" font-size="13" font-weight="400" font-style="normal" 
>
</g>

<g fill="none" stroke="#000000" stroke-opacity="1" stroke-width="1" stroke-linecap="square" stroke-linejoin="bevel" transform="matrix(3.77525,0,0,3.77525,-43,83)"
font-family=".AppleSystemUIFont" font-size="13" font-weight="400" font-style="normal" 
>
</g>

<g fill="#62cb98" fill-opacity="1" stroke="none" transform="matrix(3.77525,0,0,3.77525,-43,83)"
font-family=".AppleSystemUIFont" font-size="13" font-weight="400" font-style="normal" 
>
<path vector-effect="none" fill-rule="nonzero" d="M113.15,151.513 L107.677,151.499 L107.69,146.499 L113.162,146.513 L113.15,151.513"/>
</g>

<g fill="none" stroke="#000000" stroke-opacity="1" stroke-width="1" stroke-linecap="square" stroke-linejoin="bevel" transform="matrix(3.77525,0,0,3.77525,-43,83)"
font-family=".AppleSystemUIFont" font-size="13" font-weight="400" font-style="normal" 
>
</g>

<g fill="none" stroke="#000000" stroke-opacity="1" stroke-width="1" stroke-linecap="square" stroke-linejoin="bevel" transform="matrix(1,0,0,1,0,0)"
font-family=".AppleSystemUIFont" font-size="13" font-weight="400" font-style="normal" 
>
</g>
</g>
</svg>
